<?xml version="1.0" encoding="UTF-8"?>
<svg id="Capa_1" data-name="Capa 1" xmlns="http://www.w3.org/2000/svg" viewBox="0 0 924.83 1029.78">
  <defs>
    <style>
      .cls-1 {
        fill: #d4a69a;
      }

      .cls-1, .cls-2, .cls-3, .cls-4, .cls-5 {
        stroke-width: 0px;
      }

      .cls-2 {
        fill: #d0d1d3;
      }

      .cls-3 {
        fill: #e1c76a;
      }

      .cls-4 {
        fill: #fff;
      }

      .cls-5 {
        fill: #e6e6e7;
      }
    </style>
  </defs>
  <circle class="cls-3" cx="462.33" cy="105.6" r="80.6"/>
  <g>
    <path class="cls-4" d="M918.93,341.9c-4.3-5.1-10.4-8.3-17.1-8.8-2.1-.2-51.5-4.1-115.2,3.6-16.6,2-32.6,4.6-48,7.8-8.9-44.5-19.6-74.6-20.2-76.2-2.3-6.3-6.9-11.4-13-14.2s-13-3.1-19.2-.8c-2,.7-48.4,18.1-102.9,51.9-8.1,5.1-16,10.2-23.6,15.5-2.7-4.4-5.5-8.8-8.3-13.1-35.1-53.7-69.9-89.1-71.3-90.6-2.7-2.8-6-4.8-9.6-6,54.5-4.2,97.5-49.8,97.5-105.3-.1-58.3-47.5-105.7-105.7-105.7s-105.6,47.4-105.6,105.6,43,101.2,97.5,105.3c-3.6,1.2-6.9,3.3-9.6,6-1.5,1.5-36.3,36.8-71.3,90.6-2.9,4.4-5.6,8.8-8.3,13.1-7.6-5.3-15.5-10.4-23.6-15.5-54.5-33.9-101-51.2-102.9-51.9-6.3-2.3-13.2-2-19.2.8s-10.7,7.9-13,14.2c-.6,1.6-11.3,31.7-20.2,76.2-15.4-3.2-31.5-5.8-48-7.8-63.7-7.7-113.1-3.7-115.2-3.6-6.6.5-12.8,3.7-17.1,8.8-4.3,5.1-6.4,11.7-5.7,18.4.2,2.1,4.9,51.5,23.5,112.8,11,36.3,24.7,69.4,40.6,98.3,20.3,37,44.5,67.3,71.7,90.2,27.9,23.4,63.2,40.4,104.8,50.4,30.1,7.2,63.6,10.9,99.7,10.9,2.7,0,5.4,0,8.1-.1,53.9-.8,98.3-9.3,113.9-12.7,15.6,3.4,60,11.9,113.9,12.7,2.7,0,5.4.1,8.1.1,36.1,0,69.6-3.7,99.7-10.9,41.6-10,76.9-27,104.8-50.4,27.3-22.9,51.4-53.2,71.7-90.2,15.9-28.9,29.5-62,40.6-98.3,18.6-61.4,23.3-110.8,23.5-112.8.6-6.5-1.5-13.2-5.8-18.3Z"/>
    <g>
      <path class="cls-1" d="M772.83,642.5c-109.2,91.6-310.5,42-310.5,42,0,0,26.1-159.2,135.3-250.8,109.2-91.6,302.2-75.7,302.2-75.7,0,0-17.8,192.9-127,284.5Z"/>
      <path class="cls-2" d="M772.83,642.5c-109.2,91.6-310.5,42-310.5,42,0,0,26.1-159.2,135.3-250.8,109.2-91.6,302.2-75.7,302.2-75.7,0,0-17.8,192.9-127,284.5Z"/>
    </g>
    <g>
      <path class="cls-1" d="M700.03,588.2c-60.2,129.2-237.7,96.2-237.7,96.2,0,0-69.5-82.3-9.3-211.4,60.2-129.2,241.9-196.3,241.9-196.3,0,0,65.4,182.3,5.1,311.5Z"/>
      <path class="cls-5" d="M700.03,588.2c-60.2,129.2-237.7,96.2-237.7,96.2,0,0-69.5-82.3-9.3-211.4,60.2-129.2,241.9-196.3,241.9-196.3,0,0,65.4,182.3,5.1,311.5Z"/>
    </g>
    <g>
      <path class="cls-1" d="M151.83,642.5c109.2,91.6,310.5,42,310.5,42,0,0-26.1-159.2-135.3-250.8C217.83,342.1,24.83,358,24.83,358c0,0,17.8,192.9,127,284.5Z"/>
      <path class="cls-2" d="M151.83,642.5c109.2,91.6,310.5,42,310.5,42,0,0-26.1-159.2-135.3-250.8C217.83,342.1,24.83,358,24.83,358c0,0,17.8,192.9,127,284.5Z"/>
    </g>
    <g>
      <path class="cls-1" d="M224.63,588.2c60.2,129.2,237.7,96.2,237.7,96.2,0,0,69.5-82.3,9.3-211.4-60.2-129.2-241.9-196.3-241.9-196.3,0,0-65.4,182.3-5.1,311.5Z"/>
      <path class="cls-5" d="M224.63,588.2c60.2,129.2,237.7,96.2,237.7,96.2,0,0,69.5-82.3,9.3-211.4-60.2-129.2-241.9-196.3-241.9-196.3,0,0-65.4,182.3-5.1,311.5Z"/>
    </g>
    <path class="cls-1" d="M598.63,514.7c0,142.5-136.3,169.7-136.3,169.7,0,0-136.3-27.2-136.3-169.7s136.3-280.1,136.3-280.1c0,0,136.3,137.6,136.3,280.1Z"/>
    <path class="cls-5" d="M464.53,1029.6c-7.3,1.2-14.5-3.9-16.6-10.7-6.6-76.2-.3-227.1-2.4-303.5-.5-10.4,1.2-28.8,13.9-30.8,7.9-1.3,15.9,4.6,17.8,12.4,5.4,94.5.3,203.1,1.9,298.8,0,12.5.8,30.8-14.5,33.8h-.1Z"/>
    <g>
      <path class="cls-1" d="M491.93,838.8c-32.5,13.9-37.6-8.7-37.6-8.7,0,0,13.2-19.5,45.7-33.4s59.8-6.2,59.8-6.2c0,0-35.4,34.4-67.9,48.3Z"/>
      <path class="cls-5" d="M491.93,838.8c-32.5,13.9-37.6-8.7-37.6-8.7,0,0,13.2-19.5,45.7-33.4s59.8-6.2,59.8-6.2c0,0-35.4,34.4-67.9,48.3Z"/>
    </g>
  </g>
  <ellipse class="cls-3" cx="462.31" cy="105.6" rx="60" ry="60.4"/>
</svg>